<?xml version="1.0" encoding="UTF-8"?><svg xmlns="http://www.w3.org/2000/svg" xmlns:xlink="http://www.w3.org/1999/xlink" viewBox="0 0 148 140"><defs><style>.cls-1{fill:none;}.cls-2{fill:url(#linear-gradient);}.cls-3{letter-spacing:-.04em;}.cls-4{clip-path:url(#clippath);}.cls-5{letter-spacing:-.13em;}.cls-6{fill:#e99e2f;}.cls-7{letter-spacing:-.14em;}.cls-8{font-family:Gotham-Bold, Gotham;font-size:22.54px;font-weight:700;}.cls-9{fill:url(#linear-gradient-3);}.cls-9,.cls-10{mix-blend-mode:multiply;opacity:.2;}.cls-10{fill:url(#linear-gradient-2);}.cls-11{letter-spacing:-.09em;}.cls-12{fill:url(#radial-gradient);}.cls-13{isolation:isolate;}.cls-14{letter-spacing:-.07em;}</style><radialGradient id="radial-gradient" cx="66.57" cy="118.68" fx="66.57" fy="118.68" r="5.66" gradientTransform="translate(1615.24 52.11) rotate(90) scale(1 13.05)" gradientUnits="userSpaceOnUse"><stop offset="0" stop-color="#1c1e23"/><stop offset="1" stop-color="#000"/></radialGradient><linearGradient id="linear-gradient" x1="73.33" y1="9.5" x2="73.33" y2="86.14" gradientUnits="userSpaceOnUse"><stop offset="0" stop-color="#e99e2f"/><stop offset="1" stop-color="#e08b19"/></linearGradient><linearGradient id="linear-gradient-2" y1="9.5" y2="86.14" xlink:href="#linear-gradient"/><linearGradient id="linear-gradient-3" y1="9.5" y2="86.14" xlink:href="#linear-gradient"/><clipPath id="clippath"><path class="cls-1" d="m129.56,35.06L80.52,6.75c-4.45-2.57-9.93-2.57-14.37,0l-49.04,28.31c-4.45,2.57-7.19,7.31-7.19,12.45v50.57h21.78v13.75h71.24v-13.75h33.8v-50.57c0-5.14-2.74-9.88-7.19-12.45Z"/></clipPath></defs><g class="cls-13"><g id="OBJECTS"><text class="cls-8" transform="translate(5.18 131.35)"><tspan class="cls-3" x="0" y="0">E</tspan><tspan class="cls-11" x="14.2" y="0">X</tspan><tspan class="cls-3" x="28.67" y="0">C</tspan><tspan class="cls-7" x="44.4" y="0">AV</tspan><tspan class="cls-5" x="72.8" y="0">A</tspan><tspan class="cls-14" x="87.68" y="0">T</tspan><tspan class="cls-3" x="100.71" y="0">OR</tspan></text><path class="cls-12" d="m7.07,131.35v-15.78h11.9v3.09h-8.45v3.2h7.44v3.09h-7.44v3.31h8.56v3.09H7.07Z"/><path class="cls-12" d="m31.12,131.35l-3.54-5.41-3.56,5.41h-3.94l5.5-8.02-5.27-7.75h4.06l3.31,5.12,3.34-5.12h3.94l-5.27,7.71,5.5,8.07h-4.06Z"/><path class="cls-12" d="m43.13,131.62c-4.64,0-8.09-3.58-8.09-8.11v-.05c0-4.48,3.38-8.16,8.23-8.16,2.98,0,4.76.99,6.22,2.43l-2.21,2.55c-1.22-1.1-2.46-1.78-4.03-1.78-2.66,0-4.58,2.21-4.58,4.91v.04c0,2.7,1.87,4.96,4.58,4.96,1.8,0,2.91-.72,4.15-1.85l2.21,2.23c-1.62,1.74-3.43,2.82-6.47,2.82Z"/><path class="cls-12" d="m63.21,131.35l-1.44-3.54h-6.67l-1.44,3.54h-3.54l6.76-15.89h3.2l6.76,15.89h-3.63Zm-4.78-11.72l-2.1,5.12h4.19l-2.1-5.12Z"/><path class="cls-12" d="m74.21,131.46h-3.06l-6.38-15.89h3.83l4.12,11.11,4.12-11.11h3.74l-6.38,15.89Z"/><path class="cls-12" d="m91.61,131.35l-1.44-3.54h-6.67l-1.44,3.54h-3.54l6.76-15.89h3.2l6.76,15.89h-3.63Zm-4.78-11.72l-2.1,5.12h4.19l-2.1-5.12Z"/><path class="cls-12" d="m101.89,118.78v12.58h-3.47v-12.58h-4.8v-3.2h13.07v3.2h-4.8Z"/><path class="cls-12" d="m115.44,131.62c-4.87,0-8.36-3.63-8.36-8.11v-.05c0-4.48,3.54-8.16,8.41-8.16s8.36,3.63,8.36,8.11v.04c0,4.48-3.54,8.16-8.41,8.16Zm4.78-8.16c0-2.7-1.98-4.96-4.78-4.96s-4.73,2.21-4.73,4.91v.04c0,2.7,1.98,4.96,4.78,4.96s4.73-2.21,4.73-4.91v-.05Z"/><path class="cls-12" d="m135.61,131.35l-3.38-5.05h-2.73v5.05h-3.47v-15.78h7.21c3.72,0,5.95,1.96,5.95,5.21v.04c0,2.55-1.38,4.15-3.38,4.89l3.85,5.63h-4.06Zm.07-10.39c0-1.49-1.04-2.25-2.73-2.25h-3.45v4.53h3.52c1.69,0,2.66-.9,2.66-2.23v-.04Z"/><path class="cls-12" d="m7.07,131.35v-15.78h11.9v3.09h-8.45v3.2h7.44v3.09h-7.44v3.31h8.56v3.09H7.07Z"/><path class="cls-12" d="m31.12,131.35l-3.54-5.41-3.56,5.41h-3.94l5.5-8.02-5.27-7.75h4.06l3.31,5.12,3.34-5.12h3.94l-5.27,7.71,5.5,8.07h-4.06Z"/><path class="cls-12" d="m43.13,131.62c-4.64,0-8.09-3.58-8.09-8.11v-.05c0-4.48,3.38-8.16,8.23-8.16,2.98,0,4.76.99,6.22,2.43l-2.21,2.55c-1.22-1.1-2.46-1.78-4.03-1.78-2.66,0-4.58,2.21-4.58,4.91v.04c0,2.7,1.87,4.96,4.58,4.96,1.8,0,2.91-.72,4.15-1.85l2.21,2.23c-1.62,1.74-3.43,2.82-6.47,2.82Z"/><path class="cls-12" d="m63.21,131.35l-1.44-3.54h-6.67l-1.44,3.54h-3.54l6.76-15.89h3.2l6.76,15.89h-3.63Zm-4.78-11.72l-2.1,5.12h4.19l-2.1-5.12Z"/><path class="cls-12" d="m74.21,131.46h-3.06l-6.38-15.89h3.83l4.12,11.11,4.12-11.11h3.74l-6.38,15.89Z"/><path class="cls-12" d="m91.61,131.35l-1.44-3.54h-6.67l-1.44,3.54h-3.54l6.76-15.89h3.2l6.76,15.89h-3.63Zm-4.78-11.72l-2.1,5.12h4.19l-2.1-5.12Z"/><path class="cls-12" d="m101.89,118.78v12.58h-3.47v-12.58h-4.8v-3.2h13.07v3.2h-4.8Z"/><path class="cls-12" d="m115.44,131.62c-4.87,0-8.36-3.63-8.36-8.11v-.05c0-4.48,3.54-8.16,8.41-8.16s8.36,3.63,8.36,8.11v.04c0,4.48-3.54,8.16-8.41,8.16Zm4.78-8.16c0-2.7-1.98-4.96-4.78-4.96s-4.73,2.21-4.73,4.91v.04c0,2.7,1.98,4.96,4.78,4.96s4.73-2.21,4.73-4.91v-.05Z"/><path class="cls-12" d="m135.61,131.35l-3.38-5.05h-2.73v5.05h-3.47v-15.78h7.21c3.72,0,5.95,1.96,5.95,5.21v.04c0,2.55-1.38,4.15-3.38,4.89l3.85,5.63h-4.06Zm.07-10.39c0-1.49-1.04-2.25-2.73-2.25h-3.45v4.53h3.52c1.69,0,2.66-.9,2.66-2.23v-.04Z"/><path class="cls-12" d="m7.07,131.35v-15.78h11.9v3.09h-8.45v3.2h7.44v3.09h-7.44v3.31h8.56v3.09H7.07Z"/><path class="cls-12" d="m31.12,131.35l-3.54-5.41-3.56,5.41h-3.94l5.5-8.02-5.27-7.75h4.06l3.31,5.12,3.34-5.12h3.94l-5.27,7.71,5.5,8.07h-4.06Z"/><path class="cls-12" d="m43.13,131.62c-4.64,0-8.09-3.58-8.09-8.11v-.05c0-4.48,3.38-8.16,8.23-8.16,2.98,0,4.76.99,6.22,2.43l-2.21,2.55c-1.22-1.1-2.46-1.78-4.03-1.78-2.66,0-4.58,2.21-4.58,4.91v.04c0,2.7,1.87,4.96,4.58,4.96,1.8,0,2.91-.72,4.15-1.85l2.21,2.23c-1.62,1.74-3.43,2.82-6.47,2.82Z"/><path class="cls-12" d="m63.21,131.35l-1.44-3.54h-6.67l-1.44,3.54h-3.54l6.76-15.89h3.2l6.76,15.89h-3.63Zm-4.78-11.72l-2.1,5.12h4.19l-2.1-5.12Z"/><path class="cls-12" d="m74.21,131.46h-3.06l-6.38-15.89h3.83l4.12,11.11,4.12-11.11h3.74l-6.38,15.89Z"/><path class="cls-12" d="m91.61,131.35l-1.44-3.54h-6.67l-1.44,3.54h-3.54l6.76-15.89h3.2l6.76,15.89h-3.63Zm-4.78-11.72l-2.1,5.12h4.19l-2.1-5.12Z"/><path class="cls-12" d="m101.89,118.78v12.58h-3.47v-12.58h-4.8v-3.2h13.07v3.2h-4.8Z"/><path class="cls-12" d="m115.44,131.62c-4.87,0-8.36-3.63-8.36-8.11v-.05c0-4.48,3.54-8.16,8.41-8.16s8.36,3.63,8.36,8.11v.04c0,4.48-3.54,8.16-8.41,8.16Zm4.78-8.16c0-2.7-1.98-4.96-4.78-4.96s-4.73,2.21-4.73,4.91v.04c0,2.7,1.98,4.96,4.78,4.96s4.73-2.21,4.73-4.91v-.05Z"/><path class="cls-12" d="m135.61,131.35l-3.38-5.05h-2.73v5.05h-3.47v-15.78h7.21c3.72,0,5.95,1.96,5.95,5.21v.04c0,2.55-1.38,4.15-3.38,4.89l3.85,5.63h-4.06Zm.07-10.39c0-1.49-1.04-2.25-2.73-2.25h-3.45v4.53h3.52c1.69,0,2.66-.9,2.66-2.23v-.04Z"/><path class="cls-2" d="m129.56,35.06L80.52,6.75c-4.45-2.57-9.93-2.57-14.37,0l-49.04,28.31c-4.45,2.57-7.19,7.31-7.19,12.45v50.57h126.82v-50.57c0-5.14-2.74-9.88-7.19-12.45Z"/><path class="cls-10" d="m25.76,98.08h110.99v-41.54c-11.65-3.94-23.03-8.72-34.96-11.69-25.61-6.36-53.33-3.92-77.43,6.84-4.95,2.21-9.73,4.74-14.42,7.42v38.96h15.83Z"/><path class="cls-9" d="m25.76,98.08h110.99v-34.95c-16.87,4.46-34.66,5.46-51.89,2.71-17.51-2.79-34.26-9.27-51.75-12.15-7.57-1.25-15.5-1.72-23.18-.97v45.37h15.83Z"/><g class="cls-4"><polygon points="131.65 3.59 66.38 38.8 84.13 40.9 62.47 40.9 57.5 43.59 101.38 58.59 150.54 30.53 131.65 3.59"/><polygon points="41.63 92.75 51.99 92.75 57.12 106.63 62.87 106.63 57.74 92.75 68.1 92.75 73.23 106.63 78.98 106.63 73.85 92.75 84.21 92.75 89.34 106.63 96.1 106.63 86.38 80.8 110.27 61.09 92.49 40.81 45 40.81 26.95 71.92 41.39 106.63 46.76 106.63 41.63 92.75"/><polygon class="cls-6" points="29.54 71.84 77.12 71.84 84.6 52.89 76.23 69.19 29.54 71.84"/></g></g></g></svg>